<?xml version="1.0" encoding="utf-8" standalone="no"?>
<!DOCTYPE svg PUBLIC "-//W3C//DTD SVG 1.1//EN"
  "http://www.w3.org/Graphics/SVG/1.1/DTD/svg11.dtd">
<svg xmlns:xlink="http://www.w3.org/1999/xlink" width="144pt" height="144pt" viewBox="0 0 144 144" xmlns="http://www.w3.org/2000/svg" version="1.1">
 <metadata>
  <rdf:RDF xmlns:dc="http://purl.org/dc/elements/1.1/" xmlns:cc="http://creativecommons.org/ns#" xmlns:rdf="http://www.w3.org/1999/02/22-rdf-syntax-ns#">
   <cc:Work>
    <dc:type rdf:resource="http://purl.org/dc/dcmitype/StillImage"/>
    <dc:date>2023-01-17T09:40:55.593259</dc:date>
    <dc:format>image/svg+xml</dc:format>
    <dc:creator>
     <cc:Agent>
      <dc:title>Matplotlib v3.6.2, https://matplotlib.org/</dc:title>
     </cc:Agent>
    </dc:creator>
   </cc:Work>
  </rdf:RDF>
 </metadata>
 <defs>
  <style type="text/css">*{stroke-linejoin: round; stroke-linecap: butt}</style>
 </defs>
 <g id="figure_1">
  <g id="patch_1">
   <path d="M 0 144 
L 144 144 
L 144 0 
L 0 0 
z
" style="fill: #ffffff"/>
  </g>
  <g id="axes_1">
   <g id="patch_2">
    <path d="M 16.363636 28.647747 
L 48.877826 61.161937 
L 59.715889 50.323874 
L 27.2017 17.809684 
z
" clip-path="url(#p2e3c918c7a)" style="fill: #faebd7; stroke: #b8860b; stroke-linejoin: miter"/>
   </g>
   <g id="patch_3">
    <path d="M 54.296858 66.580968 
C 55.734001 68.018112 57.683461 68.825605 59.715889 68.825605 
C 61.748318 68.825605 63.697777 68.018112 65.134921 66.580968 
C 66.572065 65.143824 67.379557 63.194365 67.379557 61.161937 
C 67.379557 59.129508 66.572065 57.180049 65.134921 55.742905 
C 63.697777 54.305761 61.748318 53.498269 59.715889 53.498269 
C 57.683461 53.498269 55.734001 54.305761 54.296858 55.742905 
C 52.859714 57.180049 52.052221 59.129508 52.052221 61.161937 
C 52.052221 63.194365 52.859714 65.143824 54.296858 66.580968 
z
" clip-path="url(#p2e3c918c7a)" style="fill: #faebd7; stroke: #b8860b; stroke-linejoin: miter"/>
   </g>
   <g id="patch_4">
    <path d="M 70.283001 71.729048 
L 67.031582 70.103339 
L 67.573485 69.561436 
L 64.863969 66.85192 
L 65.405872 66.310017 
L 68.115388 69.019533 
L 68.657291 68.477629 
z
" clip-path="url(#p2e3c918c7a)" style="fill: #faebd7; stroke: #b8860b; stroke-linejoin: miter"/>
   </g>
   <g id="patch_5">
    <path d="M 27.2017 126.190316 
L 59.715889 93.676126 
L 48.877826 82.838063 
L 16.363636 115.352253 
z
" clip-path="url(#p2e3c918c7a)" style="fill: #faebd7; stroke: #b8860b; stroke-linejoin: miter"/>
   </g>
   <g id="patch_6">
    <path d="M 65.134921 88.257095 
C 66.572065 86.819951 67.379557 84.870492 67.379557 82.838063 
C 67.379557 80.805635 66.572065 78.856176 65.134921 77.419032 
C 63.697777 75.981888 61.748318 75.174395 59.715889 75.174395 
C 57.683461 75.174395 55.734001 75.981888 54.296858 77.419032 
C 52.859714 78.856176 52.052221 80.805635 52.052221 82.838063 
C 52.052221 84.870492 52.859714 86.819951 54.296858 88.257095 
C 55.734001 89.694239 57.683461 90.501731 59.715889 90.501731 
C 61.748318 90.501731 63.697777 89.694239 65.134921 88.257095 
z
" clip-path="url(#p2e3c918c7a)" style="fill: #faebd7; stroke: #b8860b; stroke-linejoin: miter"/>
   </g>
   <g id="patch_7">
    <path d="M 70.283001 72.270952 
L 68.657291 75.522371 
L 68.115388 74.980467 
L 65.405872 77.689983 
L 64.863969 77.14808 
L 67.573485 74.438564 
L 67.031582 73.896661 
z
" clip-path="url(#p2e3c918c7a)" style="fill: #faebd7; stroke: #b8860b; stroke-linejoin: miter"/>
   </g>
   <g id="patch_8">
    <path d="M 127.636364 111.466523 
L 92.933302 81.299612 
L 82.877665 92.867299 
L 117.580726 123.034211 
z
" clip-path="url(#p2e3c918c7a)" style="fill: #faebd7; stroke: #b8860b; stroke-linejoin: miter"/>
   </g>
   <g id="patch_9">
    <path d="M 87.149458 76.271794 
C 85.615565 74.9384 83.614527 74.268862 81.587049 74.410637 
C 79.559572 74.552413 77.671189 75.493925 76.337796 77.027819 
C 75.004403 78.561712 74.334865 80.56275 74.47664 82.590228 
C 74.618415 84.617705 75.559928 86.506088 77.093821 87.839481 
C 78.627714 89.172874 80.628752 89.842412 82.65623 89.700637 
C 84.683708 89.558862 86.57209 88.617349 87.905483 87.083456 
C 89.238876 85.549562 89.908414 83.548524 89.766639 81.521047 
C 89.624864 79.493569 88.683351 77.605187 87.149458 76.271794 
z
" clip-path="url(#p2e3c918c7a)" style="fill: #faebd7; stroke: #b8860b; stroke-linejoin: miter"/>
   </g>
   <g id="patch_10">
    <path d="M 70.843144 72.251391 
L 74.200047 73.646333 
L 73.697265 74.224717 
L 76.589187 76.738626 
L 76.086405 77.317011 
L 73.194483 74.803101 
L 72.691701 75.381486 
z
" clip-path="url(#p2e3c918c7a)" style="fill: #faebd7; stroke: #b8860b; stroke-linejoin: miter"/>
   </g>
   <g id="patch_11">
    <path d="M 113.906205 17.809684 
L 81.392015 50.323874 
L 92.230079 61.161937 
L 124.744268 28.647747 
z
" clip-path="url(#p2e3c918c7a)" style="fill: #faebd7; stroke: #b8860b; stroke-linejoin: miter"/>
   </g>
   <g id="patch_12">
    <path d="M 75.972984 55.742905 
C 74.53584 57.180049 73.728348 59.129508 73.728348 61.161937 
C 73.728348 63.194365 74.53584 65.143824 75.972984 66.580968 
C 77.410128 68.018112 79.359587 68.825605 81.392015 68.825605 
C 83.424444 68.825605 85.373903 68.018112 86.811047 66.580968 
C 88.248191 65.143824 89.055683 63.194365 89.055683 61.161937 
C 89.055683 59.129508 88.248191 57.180049 86.811047 55.742905 
C 85.373903 54.305761 83.424444 53.498269 81.392015 53.498269 
C 79.359587 53.498269 77.410128 54.305761 75.972984 55.742905 
z
" clip-path="url(#p2e3c918c7a)" style="fill: #faebd7; stroke: #b8860b; stroke-linejoin: miter"/>
   </g>
   <g id="patch_13">
    <path d="M 70.824904 71.729048 
L 72.450613 68.477629 
L 72.992517 69.019533 
L 75.702032 66.310017 
L 76.243935 66.85192 
L 73.53442 69.561436 
L 74.076323 70.103339 
z
" clip-path="url(#p2e3c918c7a)" style="fill: #faebd7; stroke: #b8860b; stroke-linejoin: miter"/>
   </g>
  </g>
 </g>
 <defs>
  <clipPath id="p2e3c918c7a">
   <rect x="10.8" y="12.390652" width="122.4" height="119.218695"/>
  </clipPath>
 </defs>
</svg>
